<svg width="597" height="100" viewBox="0 0 597 100" fill="none" xmlns="http://www.w3.org/2000/svg">
<g clip-path="url(#clip0_1122_780)">
<path d="M30.7098 12.6602C25.2829 12.6564 19.952 14.0908 15.2597 16.8172C10.5675 19.5437 6.68154 23.4649 3.99751 28.1815C1.31349 32.8982 -0.0727413 38.2418 -0.0200356 43.6684C0.0326701 49.095 1.52243 54.4107 4.29756 59.0743C7.07269 63.738 11.0341 67.5829 15.7784 70.2177C20.5227 72.8525 25.8805 74.1831 31.3062 74.0739C36.732 73.9648 42.0319 72.4198 46.6664 69.5963C51.3009 66.7728 55.1044 62.7716 57.6898 58.0002V76.4402C57.6898 89.6502 42.6898 95.6002 31.9998 95.6002C19.5598 95.6002 6.74976 85.7002 6.61976 85.6002L4.34976 88.5002C4.90976 88.9402 18.2798 99.2902 31.9998 99.2902C44.1998 99.2902 61.3798 92.2002 61.3798 76.4402V45.2402C61.3798 44.6202 61.4398 43.9902 61.4398 43.3602C61.4318 35.2153 58.1907 27.4067 52.4285 21.6502C46.6664 15.8937 38.8547 12.6602 30.7098 12.6602ZM30.7098 70.3802C25.3697 70.3802 20.1495 68.7966 15.7094 65.8298C11.2692 62.863 7.80857 58.6462 5.76501 53.7126C3.72144 48.779 3.18675 43.3502 4.22855 38.1127C5.27035 32.8752 7.84186 28.0643 11.6179 24.2883C15.3939 20.5123 20.2048 17.9408 25.4423 16.899C30.6798 15.8572 36.1086 16.3919 41.0422 18.4354C45.9758 20.479 50.1926 23.9396 53.1594 28.3798C56.1262 32.8199 57.7098 38.0401 57.7098 43.3802C57.7098 50.541 54.8651 57.4086 49.8016 62.472C44.7382 67.5355 37.8706 70.3802 30.7098 70.3802Z" fill="black"/>
<path d="M565.71 12.6499C548.77 12.6499 535 26.8899 535 44.3999C535 61.9099 548.77 76.1599 565.71 76.1599C582.65 76.1599 596.41 61.9099 596.41 44.3999C596.41 26.8899 582.64 12.6499 565.71 12.6499ZM565.71 72.4699C550.81 72.4699 538.71 59.8799 538.71 44.3999C538.71 28.9199 550.83 16.3399 565.71 16.3399C580.59 16.3399 592.71 28.9299 592.71 44.3999C592.71 59.8699 580.6 72.4699 565.71 72.4699Z" fill="black"/>
<path d="M72 38.1599V76.0999H75.69V38.1599C75.69 23.2499 87.54 16.5699 99.29 16.5699V12.8799C80.43 12.8799 72 25.5799 72 38.1599Z" fill="black"/>
<path d="M136 12.8799C127.29 12.8799 115.64 17.5299 111.55 22.6399L114.44 24.9399C117.44 21.1499 127.76 16.5699 136 16.5699C148.52 16.5699 155.28 23.9299 155.28 30.8599V41.5199H128.7C114.7 41.5199 110.04 51.2199 110.04 55.6399V59.6399C110.04 65.3699 117.04 76.0699 133.78 76.0699C150.32 76.0699 158.97 62.9099 158.97 55.8599V30.8599C159 22.1399 150.92 12.8799 136 12.8799ZM155.28 55.8799C155.28 60.5799 148.88 72.3999 133.78 72.3999C118.68 72.3999 113.78 62.9299 113.78 59.6599V55.6599C113.78 53.5899 116.44 45.2299 128.78 45.2299H155.36L155.28 55.8799Z" fill="black"/>
<path d="M200.44 69.9998C190.44 48.7298 173.85 13.5998 173.32 12.3398L171.61 13.0198L169.86 13.6098C170.08 14.2698 188.09 52.4798 198.81 75.1898L200.51 78.7999L224.39 25.9398L221 24.3998L200.44 69.9998Z" fill="black"/>
<path d="M264.36 0.779785H260.67V12.9498H264.36V0.779785Z" fill="black"/>
<path d="M264.36 24.8901H260.67V76.0901H264.36V24.8901Z" fill="black"/>
<path d="M367.15 12.6499C356.3 12.6499 348.21 17.2899 343.75 26.0699C343.204 27.1466 342.723 28.2553 342.31 29.3899C340.14 21.2899 334.19 12.6499 317.81 12.6499C306.96 12.6499 298.87 17.2899 294.41 26.0699C291.03 32.7099 290.53 40.0699 290.53 43.9099V76.0899H294.22V43.9099C294.22 19.0199 310.72 16.3399 317.81 16.3399C337.25 16.3399 339.87 28.8299 339.87 41.0399V76.0899H343.56V43.9099C343.56 19.0199 360.06 16.3399 367.15 16.3399C386.59 16.3399 389.21 28.8299 389.21 41.0399V76.0899H392.9V40.9999C392.9 33.9999 392.9 12.6499 367.15 12.6499Z" fill="black"/>
<path d="M492.35 12.6499C481.49 12.6499 473.35 17.2899 468.94 26.0699C468.393 27.1466 467.912 28.2553 467.5 29.3899C465.33 21.2899 459.38 12.6499 443.01 12.6499C432.15 12.6499 424.06 17.2899 419.6 26.0699C416.23 32.7099 415.72 40.0699 415.72 43.9099V76.0899H419.41V43.9099C419.41 19.0199 435.91 16.3399 443.01 16.3399C462.44 16.3399 465.06 28.8299 465.06 41.0399V76.0899H468.75V43.9099C468.75 19.0199 485.25 16.3399 492.35 16.3399C511.78 16.3399 514.35 28.8299 514.35 41.0399V76.0899H518.04V40.9999C518.09 33.9999 518.09 12.6499 492.35 12.6499Z" fill="black"/>
<path d="M232.771 -0.00342374L226.351 13.708L229.692 15.2727L236.112 1.56129L232.771 -0.00342374Z" fill="black"/>
</g>
<defs>
<clipPath id="clip0_1122_780">
<rect width="596.41" height="99.29" fill="white"/>
</clipPath>
</defs>
</svg>
