<svg width="597" height="100" viewBox="0 0 597 100" fill="none" xmlns="http://www.w3.org/2000/svg">
<rect width="597" height="100" fill="#8B9098" fill-opacity="0.64"/>
<g clip-path="url(#clip0_0_1)">
<path d="M30.7096 72.22C46.6485 72.22 59.5696 59.2989 59.5696 43.36C59.5696 27.4211 46.6485 14.5 30.7096 14.5C14.7707 14.5 1.84961 27.4211 1.84961 43.36C1.84961 59.2989 14.7707 72.22 30.7096 72.22Z" stroke="#1D1D1B" stroke-width="3.69" stroke-miterlimit="10"/>
<path d="M565.71 74.3102C581.649 74.3102 594.57 60.9191 594.57 44.4002C594.57 27.8814 581.649 14.4902 565.71 14.4902C549.771 14.4902 536.85 27.8814 536.85 44.4002C536.85 60.9191 549.771 74.3102 565.71 74.3102Z" stroke="#1D1D1B" stroke-width="3.69" stroke-miterlimit="10"/>
<path d="M5.49023 87.0502C5.49023 87.0502 18.7602 97.4402 32.0002 97.4402C44.1702 97.4402 59.5402 90.5902 59.5402 76.4402V45.2402" stroke="#1D1D1B" stroke-width="3.69" stroke-miterlimit="10"/>
<path d="M73.8398 76.1002V38.1602C73.8398 27.3202 80.9198 14.7202 99.2798 14.7202" stroke="#1D1D1B" stroke-width="3.69" stroke-miterlimit="10"/>
<path d="M113 23.7902C116.54 19.3602 127.38 14.7202 136 14.7202C146.61 14.7202 157.13 20.7202 157.13 30.8602V55.8602C157.13 61.6102 149.71 74.2202 133.78 74.2202C117.85 74.2202 111.89 64.1102 111.89 59.6402V55.6402C111.89 52.5802 115.43 43.3602 128.7 43.3602H157.13" stroke="#1D1D1B" stroke-width="3.69" stroke-miterlimit="10"/>
<path d="M171.61 13C171.83 13.66 200.48 74.38 200.48 74.38L222.71 25.16" stroke="#1D1D1B" stroke-width="3.69" stroke-miterlimit="10"/>
<path d="M262.52 0.779785V12.9498" stroke="#1D1D1B" stroke-width="3.69" stroke-miterlimit="10"/>
<path d="M262.52 24.8901V76.0901" stroke="#1D1D1B" stroke-width="3.69" stroke-miterlimit="10"/>
<path d="M292.38 76.0902V43.9102C292.38 37.7802 293.71 14.4902 317.82 14.4902C338.61 14.4902 341.72 28.4302 341.72 41.0402V76.0902" stroke="#1D1D1B" stroke-width="3.69" stroke-miterlimit="10"/>
<path d="M341.72 76.0902V43.9102C341.72 37.7802 343.05 14.4902 367.16 14.4902C387.95 14.4902 391.06 28.4302 391.06 41.0402V76.0902" stroke="#1D1D1B" stroke-width="3.69" stroke-miterlimit="10"/>
<path d="M417.57 76.0902V43.9102C417.57 37.7802 418.9 14.4902 443.01 14.4902C463.8 14.4902 466.91 28.4302 466.91 41.0402V76.0902" stroke="#1D1D1B" stroke-width="3.69" stroke-miterlimit="10"/>
<path d="M466.91 76.0902V43.9102C466.91 37.7802 468.24 14.4902 492.35 14.4902C513.14 14.4902 516.25 28.4302 516.25 41.0402V76.0902" stroke="#1D1D1B" stroke-width="3.69" stroke-miterlimit="10"/>
<path d="M234.43 0.779785L228.01 14.4898" stroke="#1D1D1B" stroke-width="3.69" stroke-miterlimit="10"/>
</g>
<defs>
<clipPath id="clip0_0_1">
<rect width="596.42" height="99.29" fill="white"/>
</clipPath>
</defs>
</svg>
