<svg width="780" height="144" viewBox="0 0 780 144" fill="none" xmlns="http://www.w3.org/2000/svg">
<path d="M140.164 51.6367C138.902 51.5748 137.546 51.5027 136.834 51.5027C127.301 51.5027 119.88 54.2534 114.571 59.756C111.012 63.4249 108.539 68.0662 107.095 73.6536C106.984 74.1216 106.941 74.7843 106.844 75.2952V58.2839C106.844 56.4969 106.465 55.0033 106.354 53.301C108.892 48.7216 111.692 45.1704 114.764 42.8295C119.873 39.0041 125.703 37.0018 132.122 36.477C132.867 36.4161 133.316 35.6044 132.938 34.9599C130.002 29.9547 126.612 25.1515 122.314 20.8556C96.7387 -4.72017 56.8063 -6.67158 28.7012 14.4436C36.2741 9.39245 44.8917 6.78214 54.6108 6.78214C63.2815 6.78214 71.3691 9.00546 78.9281 13.3964C88.7509 19.0989 95.0744 27.5521 98.6155 38.1893C99.626 41.2195 100.442 44.404 100.943 47.8363C101.198 49.5981 101.36 51.4356 101.48 53.301C101.593 55.0046 101.971 56.4982 101.971 58.2839V97.7788C101.971 101.989 101.585 105.868 100.943 109.526C99.5387 117.513 96.4655 124.054 91.9974 129.379C90.9958 130.575 90.1193 131.877 88.9634 132.938C85.1484 136.381 80.8686 138.997 76.1872 140.904C75.1128 141.342 75.3834 143.069 76.5409 142.992C93.2182 141.88 109.564 135.067 122.313 122.319C141.471 103.161 147.202 75.9427 140.162 51.6367H140.164ZM105.817 129.381H96.8727C101.34 124.054 104.413 117.513 105.817 109.525V129.381Z" fill="black"/>
<path d="M79.7096 119.15C82.3578 115.953 83.9551 111.907 84.8783 107.279C84.9428 106.956 85.1844 106.779 85.24 106.45C85.6839 103.697 85.9065 99.8361 85.9078 94.9164V60.369C85.9065 57.4211 85.2122 55.1876 84.8783 52.5862C83.8413 44.5086 81.723 37.5465 77.4572 32.7976C71.288 26.0442 63.5874 22.6523 54.4159 22.6523C45.6895 22.6523 38.3797 25.7647 32.5419 31.9908C26.5675 38.3003 23.593 45.8606 23.5942 54.6438C23.593 62.925 26.4006 70.1236 32.0714 76.2118C38.1027 82.716 45.577 85.9663 54.5019 85.9675C60.2827 85.9675 65.6463 84.4664 70.5659 81.4362C72.7323 80.0463 75.6512 77.7673 79.3213 74.5436V91.3867C74.7343 94.8608 70.9554 97.2511 68.0087 98.5575C63.2826 100.725 58.1985 101.809 52.749 101.809C46.6343 101.809 40.6877 100.532 34.8512 97.9745C29.0425 95.4173 23.9838 91.8319 19.6484 87.2474C11.1156 78.1859 6.86245 67.402 6.86371 54.8398C6.86371 45.0537 9.41332 36.3236 14.4872 28.652C-6.67348 56.7596 -4.73851 96.7275 20.8549 122.32C22.2537 123.717 23.8649 124.729 25.3458 125.988C35.5417 128.952 44.5981 130.465 52.4455 130.465C64.4524 130.465 73.5404 126.685 79.7108 119.153L79.7096 119.15Z" fill="black"/>
<path d="M213.86 94.4402C229.799 94.4402 242.72 81.5192 242.72 65.5802C242.72 49.6413 229.799 36.7202 213.86 36.7202C197.921 36.7202 185 49.6413 185 65.5802C185 81.5192 197.921 94.4402 213.86 94.4402Z" stroke="black" stroke-width="3.69" stroke-miterlimit="10"/>
<path d="M748.86 96.5304C764.799 96.5304 777.72 83.1393 777.72 66.6205C777.72 50.1016 764.799 36.7104 748.86 36.7104C732.921 36.7104 720 50.1016 720 66.6205C720 83.1393 732.921 96.5304 748.86 96.5304Z" stroke="black" stroke-width="3.69" stroke-miterlimit="10"/>
<path d="M188.641 109.27C188.641 109.27 201.911 119.66 215.151 119.66C227.321 119.66 242.691 112.81 242.691 98.6604V67.4604" stroke="black" stroke-width="3.69" stroke-miterlimit="10"/>
<path d="M256.99 98.3204V60.3804C256.99 49.5404 264.07 36.9404 282.43 36.9404" stroke="black" stroke-width="3.69" stroke-miterlimit="10"/>
<path d="M296.15 46.0104C299.69 41.5804 310.53 36.9404 319.15 36.9404C329.76 36.9404 340.28 42.9404 340.28 53.0804V78.0804C340.28 83.8304 332.86 96.4404 316.93 96.4404C301 96.4404 295.04 86.3304 295.04 81.8604V77.8604C295.04 74.8004 298.58 65.5804 311.85 65.5804H340.28" stroke="black" stroke-width="3.69" stroke-miterlimit="10"/>
<path d="M354.761 35.2202C354.981 35.8802 383.631 96.6002 383.631 96.6002L405.861 47.3802" stroke="black" stroke-width="3.69" stroke-miterlimit="10"/>
<path d="M445.67 23V35.17" stroke="black" stroke-width="3.69" stroke-miterlimit="10"/>
<path d="M445.67 47.1104V98.3103" stroke="black" stroke-width="3.69" stroke-miterlimit="10"/>
<path d="M475.53 98.3104V66.1304C475.53 60.0004 476.86 36.7104 500.97 36.7104C521.76 36.7104 524.87 50.6505 524.87 63.2605V98.3104" stroke="black" stroke-width="3.69" stroke-miterlimit="10"/>
<path d="M524.87 98.3104V66.1304C524.87 60.0004 526.2 36.7104 550.31 36.7104C571.1 36.7104 574.21 50.6505 574.21 63.2605V98.3104" stroke="black" stroke-width="3.69" stroke-miterlimit="10"/>
<path d="M600.721 98.3104V66.1304C600.721 60.0004 602.051 36.7104 626.161 36.7104C646.951 36.7104 650.061 50.6505 650.061 63.2605V98.3104" stroke="black" stroke-width="3.69" stroke-miterlimit="10"/>
<path d="M650.061 98.3104V66.1304C650.061 60.0004 651.391 36.7104 675.501 36.7104C696.291 36.7104 699.401 50.6505 699.401 63.2605V98.3104" stroke="black" stroke-width="3.69" stroke-miterlimit="10"/>
<path d="M417.58 23L411.16 36.71" stroke="black" stroke-width="3.69" stroke-miterlimit="10"/>
</svg>
