<svg width="597" height="100" viewBox="0 0 597 100" fill="none" xmlns="http://www.w3.org/2000/svg">
<path d="M30.86 72.4402C46.7989 72.4402 59.72 59.5192 59.72 43.5802C59.72 27.6413 46.7989 14.7202 30.86 14.7202C14.9211 14.7202 2 27.6413 2 43.5802C2 59.5192 14.9211 72.4402 30.86 72.4402Z" stroke="black" stroke-width="3.69" stroke-miterlimit="10"/>
<path d="M565.86 74.5304C581.799 74.5304 594.72 61.1393 594.72 44.6205C594.72 28.1016 581.799 14.7104 565.86 14.7104C549.921 14.7104 537 28.1016 537 44.6205C537 61.1393 549.921 74.5304 565.86 74.5304Z" stroke="black" stroke-width="3.69" stroke-miterlimit="10"/>
<path d="M5.64062 87.2705C5.64062 87.2705 18.9106 97.6604 32.1506 97.6604C44.3206 97.6604 59.6906 90.8104 59.6906 76.6604V45.4604" stroke="black" stroke-width="3.69" stroke-miterlimit="10"/>
<path d="M73.9902 76.3204V38.3804C73.9902 27.5404 81.0702 14.9404 99.4302 14.9404" stroke="black" stroke-width="3.69" stroke-miterlimit="10"/>
<path d="M113.15 24.0104C116.69 19.5804 127.53 14.9404 136.15 14.9404C146.76 14.9404 157.28 20.9404 157.28 31.0804V56.0804C157.28 61.8304 149.86 74.4404 133.93 74.4404C118 74.4404 112.04 64.3304 112.04 59.8604V55.8604C112.04 52.8004 115.58 43.5804 128.85 43.5804H157.28" stroke="black" stroke-width="3.69" stroke-miterlimit="10"/>
<path d="M171.761 13.2202C171.981 13.8802 200.631 74.6002 200.631 74.6002L222.861 25.3802" stroke="black" stroke-width="3.69" stroke-miterlimit="10"/>
<path d="M262.67 1V13.17" stroke="black" stroke-width="3.69" stroke-miterlimit="10"/>
<path d="M262.67 25.1104V76.3103" stroke="black" stroke-width="3.69" stroke-miterlimit="10"/>
<path d="M292.53 76.3104V44.1304C292.53 38.0004 293.86 14.7104 317.97 14.7104C338.76 14.7104 341.87 28.6505 341.87 41.2605V76.3104" stroke="black" stroke-width="3.69" stroke-miterlimit="10"/>
<path d="M341.87 76.3104V44.1304C341.87 38.0004 343.2 14.7104 367.31 14.7104C388.1 14.7104 391.21 28.6505 391.21 41.2605V76.3104" stroke="black" stroke-width="3.69" stroke-miterlimit="10"/>
<path d="M417.721 76.3104V44.1304C417.721 38.0004 419.051 14.7104 443.161 14.7104C463.951 14.7104 467.061 28.6505 467.061 41.2605V76.3104" stroke="black" stroke-width="3.69" stroke-miterlimit="10"/>
<path d="M467.061 76.3104V44.1304C467.061 38.0004 468.391 14.7104 492.501 14.7104C513.291 14.7104 516.401 28.6505 516.401 41.2605V76.3104" stroke="black" stroke-width="3.69" stroke-miterlimit="10"/>
<path d="M234.58 1L228.16 14.71" stroke="black" stroke-width="3.69" stroke-miterlimit="10"/>
</svg>
