<?xml version="1.0" encoding="utf-8"?>
<!-- Generator: Adobe Illustrator 26.3.1, SVG Export Plug-In . SVG Version: 6.00 Build 0)  -->
<svg version="1.1" id="Calque_1" xmlns="http://www.w3.org/2000/svg" xmlns:xlink="http://www.w3.org/1999/xlink" x="0px" y="0px"
	 viewBox="0 0 786 144" style="enable-background:new 0 0 786 144;" xml:space="preserve">
<path d="M140.2,51.6c-1.3-0.1-2.6-0.1-3.3-0.1c-9.5,0-17,2.8-22.3,8.3c-3.6,3.7-6,8.3-7.5,13.9c-0.1,0.5-0.2,1.1-0.3,1.6v-17
	c0-1.8-0.4-3.3-0.5-5c2.5-4.6,5.3-8.1,8.4-10.5c5.1-3.8,10.9-5.8,17.4-6.4c0.7-0.1,1.2-0.9,0.8-1.5c-2.9-5-6.3-9.8-10.6-14.1
	C96.7-4.7,56.8-6.7,28.7,14.4c7.6-5.1,16.2-7.7,25.9-7.7c8.7,0,16.8,2.2,24.3,6.6c9.8,5.7,16.1,14.2,19.7,24.8c1,3,1.8,6.2,2.3,9.6
	c0.3,1.8,0.4,3.6,0.5,5.5c0.1,1.7,0.5,3.2,0.5,5v39.5c0,4.2-0.4,8.1-1,11.7c-1.4,8-4.5,14.5-8.9,19.9c-1,1.2-1.9,2.5-3,3.6
	c-3.8,3.4-8.1,6.1-12.8,8c-1.1,0.4-0.8,2.2,0.4,2.1c16.7-1.1,33-7.9,45.8-20.7C141.5,103.2,147.2,75.9,140.2,51.6L140.2,51.6z
	 M105.8,129.4h-8.9c4.5-5.3,7.5-11.9,8.9-19.9V129.4z"/>
<path d="M79.7,119.2c2.6-3.2,4.2-7.2,5.2-11.9c0.1-0.3,0.3-0.5,0.4-0.8c0.4-2.8,0.7-6.6,0.7-11.5V60.4c0-2.9-0.7-5.2-1-7.8
	c-1-8.1-3.2-15-7.4-19.8c-6.2-6.8-13.9-10.1-23-10.1c-8.7,0-16,3.1-21.9,9.3c-6,6.3-8.9,13.9-8.9,22.7c0,8.3,2.8,15.5,8.5,21.6
	c6,6.5,13.5,9.8,22.4,9.8c5.8,0,11.1-1.5,16.1-4.5c2.2-1.4,5.1-3.7,8.8-6.9v16.8c-4.6,3.5-8.4,5.9-11.3,7.2
	c-4.7,2.2-9.8,3.3-15.3,3.3c-6.1,0-12.1-1.3-17.9-3.8C29,95.4,24,91.8,19.6,87.2C11.1,78.2,6.9,67.4,6.9,54.8
	c0-9.8,2.5-18.5,7.6-26.2c-21.2,28.1-19.2,68.1,6.4,93.7c1.4,1.4,3,2.4,4.5,3.7c10.2,3,19.3,4.5,27.1,4.5
	C64.5,130.5,73.5,126.7,79.7,119.2L79.7,119.2z"/>
<g>
	<path d="M219.9,35.9c-16.9,0-30.7,13.8-30.7,30.7s13.8,30.7,30.7,30.7c11.6,0,21.8-6.5,27-16.1v18.4c0,13.2-15,19.2-25.7,19.2
		c-12.4,0-25.2-9.9-25.4-10l-2.3,2.9c0.6,0.4,13.9,10.8,27.6,10.8c12.2,0,29.4-7.1,29.4-22.8V68.5h0c0-0.6,0.1-1.2,0.1-1.9
		C250.6,49.6,236.8,35.9,219.9,35.9z M219.9,93.6c-14.9,0-27-12.1-27-27c0-14.9,12.1-27,27-27c14.9,0,27,12.1,27,27
		C246.9,81.5,234.8,93.6,219.9,93.6z"/>
	<path d="M754.9,35.9c-16.9,0-30.7,14.2-30.7,31.8s13.8,31.8,30.7,31.8s30.7-14.2,30.7-31.8S771.8,35.9,754.9,35.9z M754.9,95.7
		c-14.9,0-27-12.6-27-28.1c0-15.5,12.1-28.1,27-28.1c14.9,0,27,12.6,27,28.1C781.9,83.1,769.8,95.7,754.9,95.7z"/>
	<path d="M261.1,61.4v37.9h3.7V61.4c0-14.9,11.9-21.6,23.6-21.6v-3.7C269.6,36.1,261.1,48.8,261.1,61.4z"/>
	<path d="M325.1,36.1c-8.7,0-20.4,4.7-24.4,9.8l2.9,2.3c3-3.8,13.3-8.4,21.6-8.4c12.5,0,19.3,7.4,19.3,14.3v10.7h-26.6
		c-14,0-18.7,9.7-18.7,14.1v4c0,5.7,7,16.4,23.7,16.4c16.5,0,25.2-13.2,25.2-20.2v-25C348.1,45.4,340.1,36.1,325.1,36.1z
		 M344.4,79.1c0,4.7-6.4,16.5-21.5,16.5c-15.1,0-20-9.5-20-12.7v-4c0-2.1,2.7-10.4,15-10.4h26.6V79.1z"/>
	<path d="M389.6,93.2c-10-21.3-26.6-56.4-27.1-57.7l-1.7,0.7l-1.8,0.6c0.2,0.7,18.2,38.9,29,61.6l1.7,3.6l23.9-52.9l-3.4-1.5
		L389.6,93.2z"/>
	<rect x="449.8" y="24" width="3.7" height="12.2"/>
	<rect x="449.8" y="48.1" width="3.7" height="51.2"/>
	<path d="M556.3,35.9c-10.9,0-18.9,4.6-23.4,13.4c-0.6,1.1-1,2.2-1.4,3.3c-2.2-8.1-8.1-16.7-24.5-16.7c-10.9,0-18.9,4.6-23.4,13.4
		c-3.4,6.6-3.9,14-3.9,17.8v32.2h3.7V67.1c0-24.9,16.5-27.6,23.6-27.6c19.4,0,22.1,12.5,22.1,24.7v2.9v32.2h3.7V67.1
		c0-24.9,16.5-27.6,23.6-27.6c19.4,0,22.1,12.5,22.1,24.7v35.1h3.7V64.3C582.1,57.2,582.1,35.9,556.3,35.9z"/>
	<path d="M681.5,35.9c-10.9,0-18.9,4.6-23.4,13.4c-0.6,1.1-1,2.2-1.4,3.3c-2.2-8.1-8.1-16.7-24.5-16.7c-10.9,0-18.9,4.6-23.4,13.4
		c-3.4,6.6-3.9,14-3.9,17.8v32.2h3.7V67.1c0-24.9,16.5-27.6,23.6-27.6c19.4,0,22.1,12.5,22.1,24.7v2.9v32.2h3.7V67.1
		c0-24.9,16.5-27.6,23.6-27.6c19.4,0,22.1,12.5,22.1,24.7v35.1h3.7V64.3C707.2,57.2,707.2,35.9,681.5,35.9z"/>
	<rect x="412.8" y="29" transform="matrix(0.424 -0.9057 0.9057 0.424 214.1944 398.489)" width="15.1" height="3.7"/>
</g>
</svg>
