<svg id="Calque_1" data-name="Calque 1" xmlns="http://www.w3.org/2000/svg" width="277.28mm" height="50.8mm" viewBox="0 0 786 144">
  <g>
    <path d="M137.19,52.92c-1.21-.06-2.51-.13-3.19-.13q-13.71,0-21.35,7.92A29.19,29.19,0,0,0,105.48,74c-.1.45-.14,1.09-.24,1.58V59.29c0-1.71-.36-3.14-.47-4.77a31.84,31.84,0,0,1,8.07-10,31.36,31.36,0,0,1,16.64-6.09,1,1,0,0,0,.78-1.46,65.86,65.86,0,0,0-10.18-13.52,68.59,68.59,0,0,0-89.77-6.15A43.75,43.75,0,0,1,55.16,9.91a45.66,45.66,0,0,1,23.32,6.34C87.89,21.72,94,29.83,97.35,40a53.24,53.24,0,0,1,2.23,9.25c.25,1.69.4,3.45.52,5.24.11,1.63.47,3.06.47,4.77V97.17a64.29,64.29,0,0,1-1,11.26,39.62,39.62,0,0,1-8.57,19,34.93,34.93,0,0,1-2.91,3.41,41.51,41.51,0,0,1-12.25,7.64c-1,.42-.77,2.07.34,2a68.17,68.17,0,0,0,61-87.6Zm-32.93,74.55H95.68a39.63,39.63,0,0,0,8.58-19Z"/>
    <path d="M79.22,117.66a25.22,25.22,0,0,0,5-11.39c.06-.31.29-.47.35-.79a74.48,74.48,0,0,0,.64-11.06V61.29c0-2.82-.67-5-1-7.46-1-7.74-3-14.42-7.11-19A28.74,28.74,0,0,0,55,25.13a27.57,27.57,0,0,0-21,9A30.48,30.48,0,0,0,25.42,55.8a29.33,29.33,0,0,0,8.13,20.69,28.15,28.15,0,0,0,21.5,9.35,28.81,28.81,0,0,0,15.41-4.35,76.21,76.21,0,0,0,8.39-6.6V91A59.2,59.2,0,0,1,68,97.91,34.69,34.69,0,0,1,53.37,101a42.19,42.19,0,0,1-17.16-3.68A44.69,44.69,0,0,1,21.63,87.07,43.69,43.69,0,0,1,9.38,56a44.48,44.48,0,0,1,7.31-25.11,68.6,68.6,0,0,0,6.1,89.82c1.34,1.34,2.89,2.31,4.31,3.51,9.77,2.85,18.46,4.3,26,4.3q17.28,0,26.15-10.85Z"/>
    <g>
      <path d="M213.61,37.81a29.44,29.44,0,1,0,25.88,43.48V99c0,12.67-14.41,18.37-24.64,18.37-11.92,0-24.21-9.5-24.33-9.59l-2.18,2.79c.54.42,13.35,10.33,26.51,10.33,11.7,0,28.17-6.79,28.17-21.9V69.05h0q.06-.89.06-1.8A29.48,29.48,0,0,0,213.61,37.81Zm0,55.34a25.9,25.9,0,1,1,25.9-25.9A25.93,25.93,0,0,1,213.61,93.15Z"/>
      <path d="M726.6,37.8c-16.23,0-29.44,13.66-29.44,30.45S710.37,98.7,726.6,98.7,756,85,756,68.25,742.84,37.8,726.6,37.8Zm0,57.36c-14.28,0-25.9-12.07-25.9-26.91s11.62-26.91,25.9-26.91,25.9,12.07,25.9,26.91S740.88,95.16,726.6,95.16Z"/>
      <path d="M253.2,62.26V98.64h3.54V62.26c0-14.3,11.36-20.7,22.62-20.7V38C261.29,38,253.2,50.2,253.2,62.26Z"/>
      <path d="M314.57,38c-8.35,0-19.52,4.46-23.44,9.36l2.77,2.21c2.9-3.64,12.77-8,20.67-8,12,0,18.49,7.06,18.49,13.7V65.48H307.57c-13.38,0-17.89,9.3-17.89,13.55v3.83c0,5.49,6.68,15.75,22.76,15.75,15.86,0,24.16-12.61,24.16-19.37v-24C336.6,46.9,328.88,38,314.57,38Zm18.49,41.22c0,4.5-6.13,15.83-20.62,15.83S293.22,86,293.22,82.86V79c0-2,2.55-10,14.35-10h25.49Z"/>
      <path d="M376.36,92.77c-9.62-20.39-25.5-54.08-26-55.29l-1.65.66L347,38.7c.21.64,17.48,37.27,27.76,59.05l1.63,3.46,22.9-50.68-3.23-1.46Z"/>
      <rect x="434.11" y="26.42" width="3.54" height="11.67"/>
      <rect x="434.11" y="49.54" width="3.54" height="49.09"/>
      <path d="M536.22,37.8c-10.41,0-18.17,4.45-22.44,12.87a28.31,28.31,0,0,0-1.38,3.18c-2.08-7.76-7.79-16.05-23.49-16.05-10.41,0-18.17,4.45-22.44,12.87-3.24,6.37-3.72,13.45-3.72,17.11V98.63h3.53V67.78c0-23.87,15.83-26.44,22.63-26.44,18.63,0,21.15,12,21.15,23.69v33.6h3.53V67.78c0-23.87,15.83-26.44,22.63-26.44,18.63,0,21.15,12,21.15,23.69v33.6h3.53V65C560.9,58.29,560.9,37.8,536.22,37.8Z"/>
      <path d="M656.26,37.8c-10.41,0-18.17,4.45-22.44,12.87a27.54,27.54,0,0,0-1.38,3.18C630.36,46.09,624.65,37.8,609,37.8c-10.41,0-18.17,4.45-22.44,12.87-3.24,6.37-3.72,13.45-3.72,17.11V98.63h3.53V67.78c0-23.87,15.83-26.44,22.63-26.44,18.64,0,21.15,12,21.15,23.69v33.6h3.54V67.78c0-23.87,15.82-26.44,22.62-26.44,18.64,0,21.15,12,21.15,23.69v33.6H681V65C681,58.29,681,37.8,656.26,37.8Z"/>
      <rect x="398.61" y="31.23" width="14.52" height="3.54" transform="translate(203.91 386.59) rotate(-64.91)"/>
    </g>
  </g>
</svg>
