<svg width="788" height="143" viewBox="0 0 788 143" fill="none" xmlns="http://www.w3.org/2000/svg">
<path fill-rule="evenodd" clip-rule="evenodd" d="M140.164 51.6366C138.902 51.5746 137.546 51.5023 136.834 51.5023C127.301 51.5023 119.88 54.2533 114.571 59.7558C111.012 63.4247 108.539 68.0663 107.095 73.6537C106.984 74.1215 106.941 74.7841 106.844 75.2953V58.2836C106.844 56.497 106.465 55.0033 106.354 53.3012C108.892 48.7216 111.692 45.1703 114.764 42.8295C119.873 39.0038 125.702 37.0019 132.122 36.477C132.867 36.4159 133.316 35.6044 132.938 34.9599C130.002 29.9545 126.612 25.1513 122.314 20.8554C96.7386 -4.7203 56.8065 -6.67148 28.701 14.4438C36.2743 9.39249 44.8919 6.78214 54.6107 6.78214C63.2816 6.78214 71.369 9.00528 78.9281 13.3964C88.7508 19.099 95.0746 27.5522 98.6156 38.1894C99.6258 41.2196 100.442 44.4037 100.943 47.8363C101.198 49.5981 101.36 51.4355 101.48 53.3012C101.526 54.0053 101.618 54.6732 101.71 55.3412L101.783 55.8788C101.885 56.6503 101.971 57.434 101.971 58.2836V97.7787C101.971 101.989 101.585 105.868 100.943 109.526C99.5389 117.513 96.4657 124.054 91.9974 129.379C91.6898 129.747 91.3939 130.124 91.098 130.502L90.7518 130.941C90.1966 131.642 89.6258 132.33 88.9632 132.938C85.1483 136.381 80.8685 138.997 76.1873 140.904C75.1126 141.342 75.3836 143.069 76.5409 142.992C93.2181 141.88 109.564 135.067 122.313 122.319C141.471 103.161 147.202 75.9428 140.164 51.6366ZM105.817 129.381H96.8729C101.34 124.054 104.413 117.513 105.817 109.525V129.381Z" fill="black"/>
<path d="M423.909 21.2177L417.489 34.9276L420.831 36.4921L427.251 22.7821L423.909 21.2177Z" fill="black"/>
<path d="M451.825 21.9999V34.1698H455.515V21.9999H451.825Z" fill="black"/>
<path d="M361.172 35.1928L361.169 35.1864C361.129 35.0985 361.051 34.9257 361.01 34.8036L364.511 33.6366L364.544 33.6947C364.602 33.8222 364.686 34.0063 364.796 34.245L365.001 34.6884L365.736 36.2665C366.539 37.9882 367.676 40.4125 369.035 43.3051C371.751 49.0893 375.352 56.7401 378.947 64.3715C382.542 72.0023 386.13 79.6127 388.819 85.3153L391.594 91.1986L412.179 45.6205L415.542 47.1396L391.667 100.001L389.962 96.3876L391.631 95.6C389.962 96.3876 389.962 96.3871 389.961 96.3847L389.941 96.3432L389.88 96.2133L385.482 86.8891C382.792 81.1864 379.204 73.5756 375.609 65.9438C373.641 61.767 371.672 57.5839 369.846 53.7035L365.694 44.8734C364.336 41.9804 363.198 39.5526 362.392 37.8275C361.99 36.9648 361.669 36.2758 361.446 35.7914L361.44 35.7797L361.181 35.2138L361.172 35.1928Z" fill="black"/>
<path fill-rule="evenodd" clip-rule="evenodd" d="M726.155 65.6205C726.155 48.1454 739.84 33.8651 756.86 33.8651C773.879 33.8651 787.565 48.1454 787.565 65.6205C787.565 83.0956 773.879 97.3754 756.86 97.3754C739.84 97.3754 726.155 83.0956 726.155 65.6205ZM756.86 37.5556C742.001 37.5556 729.845 50.058 729.845 65.6205C729.845 81.183 742.001 93.6855 756.86 93.6855C771.718 93.6855 783.875 81.183 783.875 65.6205C783.875 50.058 771.718 37.5556 756.86 37.5556Z" fill="black"/>
<path fill-rule="evenodd" clip-rule="evenodd" d="M191.155 64.58C191.155 47.622 204.902 33.8749 221.86 33.8749C238.818 33.8749 252.565 47.622 252.565 64.58C252.565 65.2113 252.546 65.8383 252.508 66.4604H252.535V97.6606C252.535 105.512 248.235 111.285 242.489 115.014C236.783 118.717 229.537 120.505 223.15 120.505C216.094 120.505 209.152 117.752 204.076 115.1C201.517 113.764 199.387 112.429 197.892 111.426C197.628 111.248 197.384 111.081 197.16 110.926C196.751 110.642 196.411 110.398 196.148 110.206C195.945 110.058 195.787 109.94 195.679 109.857L195.553 109.762L195.518 109.735L195.508 109.727L195.505 109.725C195.505 109.725 195.503 109.724 195.823 109.315L197.777 106.817L197.782 106.821L197.805 106.839L197.907 106.916L198.098 107.06L198.325 107.227L198.656 107.466L199.02 107.725C199.29 107.914 199.601 108.128 199.949 108.362C201.357 109.307 203.371 110.569 205.785 111.83C210.654 114.373 216.967 116.815 223.15 116.815C228.933 116.815 235.458 115.179 240.48 111.919C245.461 108.686 248.846 103.959 248.846 97.6606V79.2401C243.642 88.7982 233.509 95.2851 221.86 95.2851C204.902 95.2851 191.155 81.538 191.155 64.58ZM221.86 37.5653C206.94 37.5653 194.845 49.6601 194.845 64.58C194.845 79.4999 206.94 91.5951 221.86 91.5951C236.78 91.5951 248.875 79.4999 248.875 64.58C248.875 49.6601 236.78 37.5653 221.86 37.5653Z" fill="black"/>
<path d="M272.195 44.8315C268.485 48.9423 266.835 54.3373 266.835 59.3803V97.3202H263.145V59.3803C263.145 53.5834 265.035 47.2582 269.455 42.3593C273.912 37.4198 280.794 34.0951 290.43 34.0951V37.7856C281.706 37.7856 275.868 40.7607 272.195 44.8315Z" fill="black"/>
<path fill-rule="evenodd" clip-rule="evenodd" d="M305.591 46.162C307.067 44.3148 310.313 42.1952 314.438 40.5243C318.509 38.8744 323.136 37.7856 327.15 37.7856C332.136 37.7856 337.035 39.2006 340.636 41.7196C344.205 44.2162 346.435 47.7318 346.435 52.0805V62.7353H319.85C312.743 62.7353 308.045 65.224 305.129 68.3046C302.29 71.3041 301.195 74.8178 301.195 76.8603V80.8603C301.195 86.5517 308.196 97.2856 324.93 97.2856C333.424 97.2856 339.723 93.9086 343.888 89.7172C347.973 85.6044 350.125 80.5722 350.125 77.0805V52.0805C350.125 46.289 347.095 41.7343 342.751 38.6962C338.44 35.6801 332.774 34.0951 327.15 34.0951C322.544 34.0951 317.441 35.3261 313.052 37.1039C308.717 38.8607 304.772 41.2758 302.708 43.8588L305.591 46.162ZM319.85 66.4252H346.435V77.0805C346.435 79.3388 344.876 83.4862 341.27 87.1161C337.742 90.6669 332.366 93.5951 324.93 93.5951C309.804 93.5951 304.885 84.1088 304.885 80.8603V76.8603C304.885 75.8427 305.56 73.2167 307.808 70.8412C309.98 68.5468 313.686 66.4252 319.85 66.4252Z" fill="black"/>
<path d="M451.825 97.3105V46.1103H455.515V97.3105H451.825Z" fill="black"/>
<path d="M485.375 65.1303C485.375 62.1469 485.709 55.1493 488.854 48.9569C490.412 45.8886 492.639 43.0605 495.827 40.9931C499.007 38.9315 503.252 37.5556 508.97 37.5556C518.906 37.5556 524.226 40.8505 527.182 45.2807C530.24 49.8651 531.025 56.0321 531.025 62.2602V64.9213L531.025 65.1303L531.025 97.3105H534.715V65.1303C534.715 62.1469 535.049 55.1493 538.194 48.9569C539.752 45.8886 541.979 43.0605 545.167 40.9931C548.347 38.9315 552.592 37.5556 558.31 37.5556C568.245 37.5556 573.566 40.8505 576.521 45.2807C579.58 49.8651 580.365 56.0321 580.365 62.2602V97.3105H584.055V62.2602C584.055 55.8783 583.285 48.7704 579.591 43.2328C575.794 37.5399 569.164 33.8651 558.31 33.8651C551.973 33.8651 547.011 35.4003 543.16 37.8974C539.317 40.3886 536.692 43.766 534.904 47.286C534.345 48.3871 533.865 49.5063 533.454 50.623C532.774 48.0028 531.755 45.4877 530.251 43.2328C526.454 37.5399 519.825 33.8651 508.97 33.8651C502.633 33.8651 497.671 35.4003 493.82 37.8974C489.977 40.3886 487.352 43.766 485.564 47.286C482.016 54.2714 481.685 61.9838 481.685 65.1303V97.3105H485.375V65.1303Z" fill="black"/>
<path d="M610.566 65.1303C610.566 62.1469 610.899 55.1493 614.044 48.9569C615.603 45.8886 617.83 43.0605 621.018 40.9931C624.198 38.9315 628.443 37.5556 634.161 37.5556C644.096 37.5556 649.417 40.8505 652.372 45.2807C655.431 49.8651 656.216 56.0321 656.216 62.2602V64.9213L656.215 65.1303L656.216 97.3105H659.906V65.1303C659.906 62.1469 660.239 55.1493 663.384 48.9569C664.943 45.8886 667.17 43.0605 670.358 40.9931C673.537 38.9315 677.783 37.5556 683.5 37.5556C693.436 37.5556 698.757 40.8505 701.712 45.2807C704.77 49.8651 705.556 56.0321 705.556 62.2602V97.3105H709.245V62.2602C709.245 55.8783 708.475 48.7704 704.782 43.2328C700.984 37.5399 694.355 33.8651 683.5 33.8651C677.163 33.8651 672.201 35.4003 668.35 37.8974C664.508 40.3886 661.882 43.766 660.094 47.286C659.535 48.3871 659.056 49.5063 658.645 50.623C657.965 48.0028 656.946 45.4877 655.442 43.2328C651.644 37.5399 645.015 33.8651 634.161 33.8651C627.823 33.8651 622.861 35.4003 619.011 37.8974C615.168 40.3886 612.542 43.766 610.754 47.286C607.207 54.2714 606.875 61.9838 606.875 65.1303V97.3105H610.566V65.1303Z" fill="black"/>
<path d="M84.8783 107.279C83.9549 111.907 82.3578 115.953 79.7093 119.15C73.5404 126.685 64.4525 130.465 52.4452 130.465C44.598 130.465 35.5414 128.952 25.3456 125.988C24.7713 125.5 24.1776 125.049 23.5848 124.598C22.6478 123.886 21.7118 123.175 20.8548 122.319C-4.73843 96.7274 -6.67349 56.7597 14.4872 28.6518C9.41294 36.3236 6.86362 45.0536 6.86362 54.8398C6.86215 67.4018 11.1156 78.1859 19.6483 87.2475C23.9837 91.8319 29.0423 95.4169 34.8509 97.9745C40.6874 100.532 46.6341 101.809 52.7489 101.809C58.1986 101.809 63.2826 100.725 68.0086 98.5575C70.9554 97.2509 74.7342 94.8607 79.3211 91.3866V74.5434C75.6512 77.767 72.7323 80.0463 70.5658 81.4359C65.6463 84.4662 60.2826 85.9672 54.5018 85.9672C45.577 85.9662 38.1024 82.7157 32.0711 76.2118C26.4002 70.1234 23.5926 62.9247 23.5941 54.6435C23.5926 45.8603 26.5672 38.3002 32.5418 31.9906C38.3797 25.7646 45.6893 22.6523 54.4159 22.6523C63.5873 22.6523 71.2879 26.0439 77.4569 32.7973C81.723 37.5463 83.8412 44.5087 84.8783 52.5858C84.9925 53.4745 85.1488 54.3207 85.305 55.1669C85.6058 56.7973 85.9071 58.4281 85.9076 60.369V94.9164C85.9066 99.8358 85.6839 103.697 85.2401 106.45C85.2118 106.619 85.1346 106.747 85.057 106.875C84.9832 106.998 84.9095 107.121 84.8783 107.279Z" fill="black"/>
</svg>
