<svg width="400" height="73" viewBox="0 0 400 73" fill="none" xmlns="http://www.w3.org/2000/svg">
<path d="M71.3701 26.3712L71.3744 26.3714L71.3638 26.3501L71.3701 26.3712Z" fill="black"/>
<path fill-rule="evenodd" clip-rule="evenodd" d="M71.3701 26.3712L71.1375 26.3595C70.5681 26.3309 69.9968 26.3021 69.6751 26.3021C64.8215 26.3021 61.0442 27.708 58.343 30.5197C56.4746 32.5077 55.1614 34.9541 54.5356 37.6129C54.5019 37.7511 54.4805 37.9231 54.4593 38.0939C54.4438 38.2191 54.4283 38.344 54.4081 38.4543V29.7689C54.4081 29.2281 54.3415 28.7413 54.2749 28.2545C54.2287 27.9167 54.1825 27.579 54.1585 27.2234C55.2094 25.175 56.6658 23.3631 58.4386 21.8982C61.0122 19.9831 64.0822 18.8533 67.2802 18.6445C67.3664 18.6354 67.4491 18.6052 67.521 18.5566C67.593 18.5081 67.6519 18.4426 67.6928 18.3659C67.7337 18.2892 67.7552 18.2036 67.7554 18.1166C67.7557 18.0297 67.7348 17.944 67.6944 17.867C66.2058 15.2413 64.3872 12.818 62.2832 10.6567C56.0661 4.44134 47.8194 0.687235 39.0612 0.0854669C30.3029 -0.516301 21.6227 2.07477 14.6183 7.3817C18.5207 4.77225 23.119 3.4078 27.809 3.46768C32.1652 3.45604 36.4436 4.62433 40.1925 6.84918C45.1948 9.75674 48.4128 14.0755 50.2183 19.5072C50.7589 21.1104 51.1552 22.7589 51.4025 24.433C51.53 25.333 51.6149 26.2702 51.6786 27.2234C51.701 27.5885 51.7487 27.9347 51.7964 28.2815C51.8622 28.7592 51.9282 29.2381 51.9282 29.7689V49.9354C51.9271 51.9459 51.7494 53.9524 51.3972 55.9316C50.8061 59.6515 49.233 63.145 46.841 66.0495C46.3652 66.6873 45.849 67.2939 45.2957 67.8654C43.3818 69.5933 41.18 70.9704 38.7906 71.9338C38.2596 72.1575 38.3817 73.0361 38.9712 72.9988C44.4092 72.653 49.6992 71.0808 54.4469 68.3993C59.1946 65.7178 63.2775 61.9963 66.3913 57.5121C69.5051 53.028 71.5694 47.8968 72.4304 42.5012C73.2902 37.1128 72.9277 31.5995 71.3701 26.3712ZM49.3315 66.0708H53.8824V55.9529C53.2931 59.6724 51.7218 63.1659 49.3315 66.0708Z" fill="black"/>
<path d="M43.246 54.7868C42.8763 56.9965 41.9639 59.0792 40.5908 60.8468H40.5961C37.4525 64.6987 32.8254 66.6247 26.7151 66.6247C22.7112 66.6247 18.1019 65.8525 12.9084 64.3402C12.6158 64.0901 12.3135 63.8592 12.0115 63.6287C11.5356 63.2652 11.0604 62.9023 10.625 62.4657C4.42381 56.2254 0.680265 47.9481 0.0840387 39.1586C-0.512188 30.3691 2.07907 21.6597 7.38044 14.6347C4.78167 18.6021 3.42946 23.26 3.49864 28.0063C3.39936 34.1698 5.74048 40.1214 10.009 44.557C12.1967 46.8851 14.8299 48.7469 17.7514 50.0313C20.6181 51.3183 23.7229 51.986 26.8638 51.991C29.5432 52.0111 32.1946 51.444 34.6327 50.3296C36.6805 49.3244 38.6125 48.0976 40.3943 46.6711V38.0709C38.9908 39.3468 37.5004 40.5229 35.9337 41.5909C33.4796 43.119 30.6446 43.9202 27.7559 43.902C25.6071 43.9437 23.4745 43.5205 21.5034 42.6613C19.5323 41.8021 17.769 40.5271 16.3335 38.923C13.5094 35.9623 11.9588 32.0071 12.0163 27.9105C11.9399 23.6063 13.5711 19.4479 16.5513 16.3494C17.9611 14.7985 19.6858 13.5683 21.6093 12.7416C23.5328 11.9149 25.6106 11.5109 27.7028 11.5568C29.9159 11.515 32.1115 11.9569 34.1372 12.8517C36.1628 13.7464 37.97 15.0726 39.4332 16.7382C41.621 19.1771 42.6831 22.7344 43.2141 26.8561C43.2727 27.2827 43.3491 27.6925 43.4257 28.103C43.5851 28.958 43.7451 29.8158 43.7451 30.834V48.4657C43.7878 50.436 43.6813 52.4066 43.4265 54.3607C43.4128 54.4485 43.3738 54.5151 43.3348 54.5817C43.2981 54.6442 43.2614 54.7067 43.246 54.7868Z" fill="black"/>
<path fill-rule="evenodd" clip-rule="evenodd" d="M111.955 18.325C109.194 18.3244 106.481 19.0576 104.093 20.4499C101.706 21.8422 99.7284 23.844 98.3629 26.2515C96.9974 28.659 96.2923 31.3863 96.3193 34.1559C96.3464 36.9254 97.1046 39.6384 98.5168 42.0186C99.9291 44.3989 101.945 46.3615 104.359 47.7066C106.774 49.0518 109.5 49.7316 112.261 49.6767C115.023 49.6219 117.721 48.8344 120.08 47.3945C122.439 45.9545 124.376 43.9134 125.693 41.479V50.894C125.693 57.641 118.041 60.6764 112.609 60.6764C106.301 60.6764 99.8039 55.6584 99.6897 55.5702L99.6887 55.5695L98.5311 57.0552C98.8178 57.2789 105.626 62.5615 112.609 62.5615C118.822 62.5615 127.573 58.9403 127.573 50.894V34.9609C127.573 34.8059 127.581 34.6495 127.589 34.4918V34.4877C127.597 34.3274 127.605 34.1654 127.605 34.0024C127.599 29.8435 125.948 25.8567 123.014 22.9174C120.08 19.9781 116.103 18.3264 111.955 18.325ZM111.955 47.8C109.234 47.8011 106.573 46.9927 104.31 45.4773C102.047 43.9618 100.282 41.8073 99.2401 39.2862C98.1979 36.7651 97.9247 33.9907 98.455 31.3139C98.9853 28.6371 100.295 26.1781 102.219 24.2479C104.143 22.3178 106.595 21.0031 109.264 20.4703C111.933 19.9375 114.7 20.2104 117.214 21.2546C119.729 22.2987 121.878 24.0672 123.39 26.3363C124.902 28.6054 125.709 31.2733 125.709 34.0024C125.705 37.6595 124.255 41.1658 121.676 43.7522C119.098 46.3387 115.602 47.7944 111.955 47.8Z" fill="black"/>
<path fill-rule="evenodd" clip-rule="evenodd" d="M368.733 34.5349C368.733 25.5939 375.743 18.3197 384.367 18.3197C392.964 18.3197 400 25.5939 400 34.5349C400 43.4759 392.99 50.7502 384.367 50.7502C375.743 50.7502 368.733 43.4759 368.733 34.5349ZM370.608 34.5349C370.608 42.4375 376.778 48.865 384.367 48.865C391.95 48.865 398.12 42.4375 398.12 34.5349C398.12 26.6323 391.955 20.2048 384.367 20.2048C376.778 20.2048 370.608 26.6323 370.608 34.5349Z" fill="black"/>
<path d="M132.973 31.3505V50.7182H134.853V31.3505C134.853 23.7301 140.886 20.322 146.865 20.322V18.4368C137.269 18.4368 132.973 24.9229 132.973 31.3505Z" fill="black"/>
<path fill-rule="evenodd" clip-rule="evenodd" d="M153.121 23.4212C155.197 20.8119 161.128 18.4368 165.563 18.4368C173.162 18.4368 177.261 23.1709 177.261 27.6068V40.3873C177.261 43.9872 172.859 50.7022 164.437 50.7022C155.893 50.7022 152.351 45.2386 152.351 42.315V40.2755C152.351 38.0123 154.74 33.0598 161.845 33.0598H175.387V27.6388C175.387 24.0975 171.935 20.3379 165.563 20.3379C161.373 20.3379 156.132 22.6597 154.586 24.5981L153.121 23.4212ZM164.437 48.8171C172.126 48.8171 175.387 42.7837 175.387 40.3873V34.9503H161.845C155.585 34.9503 154.23 39.2105 154.23 40.2755V42.315C154.23 43.9818 156.747 48.8171 164.437 48.8171Z" fill="black"/>
<path d="M198.38 47.5923C193.271 36.7342 184.839 18.7936 184.573 18.1546L183.702 18.5007L182.81 18.799C182.914 19.116 190.86 36.0146 196.359 47.7075L198.422 52.0921L210.578 25.0987L208.868 24.3212L198.38 47.5923Z" fill="black"/>
<path d="M229.047 12.2596H230.927V18.4741H229.047V12.2596Z" fill="black"/>
<path d="M230.927 24.5715H229.047V50.7129H230.927V24.5715Z" fill="black"/>
<path d="M271.348 25.1732C273.621 20.6894 277.742 18.3197 283.264 18.3197C296.297 18.3197 296.375 29.1003 296.402 32.7547L296.402 32.8202V50.7182H294.522V32.8202C294.522 26.5951 293.189 20.2048 283.291 20.2048C279.68 20.2048 271.279 21.5734 271.279 34.2846V50.7182H269.399V32.8202C269.399 26.5951 268.067 20.2048 258.168 20.2048C254.557 20.2048 246.156 21.5734 246.156 34.2846V50.7182H244.277V34.2846C244.277 32.3356 244.51 28.5654 246.225 25.1732C248.498 20.6894 252.619 18.3197 258.142 18.3197C266.479 18.3197 269.511 22.7343 270.615 26.872C270.829 26.2927 271.073 25.7256 271.348 25.1732Z" fill="black"/>
<path d="M347.014 18.3197C341.486 18.3197 337.365 20.6894 335.093 25.1732C334.818 25.7256 334.573 26.2927 334.36 26.872C333.255 22.7343 330.228 18.3197 321.891 18.3197C316.363 18.3197 312.243 20.6894 309.97 25.1732C308.255 28.5654 308 32.3356 308 34.2846V50.7182H309.88V34.2846C309.88 21.5734 318.28 20.2048 321.897 20.2048C331.79 20.2048 333.123 26.5951 333.123 32.8202V50.7182H335.002V34.2846C335.002 21.5734 343.403 20.2048 347.02 20.2048C356.913 20.2048 358.245 26.5951 358.245 32.8202V50.7182H360.125V32.807C360.12 29.2042 360.104 18.3197 347.014 18.3197Z" fill="black"/>
<path d="M211.575 18.871L214.845 11.8684L216.547 12.6678L213.278 19.6704L211.575 18.871Z" fill="black"/>
</svg>
