<?xml version="1.0" encoding="utf-8"?>
<!-- Generator: Adobe Illustrator 23.0.2, SVG Export Plug-In . SVG Version: 6.00 Build 0)  -->
<svg version="1.1" id="Calque_1" xmlns="http://www.w3.org/2000/svg" xmlns:xlink="http://www.w3.org/1999/xlink" x="0px" y="0px"
	 viewBox="0 0 384 81" style="enable-background:new 0 0 384 81;" xml:space="preserve">
<path d="M78.7,29.1c-0.7,0-1.5-0.1-1.9-0.1c-5.4,0-9.5,1.6-12.5,4.7c-2,2.1-3.4,4.7-4.2,7.8c-0.1,0.3-0.1,0.6-0.1,0.9v-9.6
	c0-1,0.1-1.9,0-2.8c1.4-2.6,2.7-4.5,4.5-5.9c3.1-2.3,6.7-3.5,10.7-3.6c-1.8-3.1-3.8-6.1-6.4-8.7C54.3-2.7,31.8-3.8,16,8.1
	c4.3-2.8,9.1-4.3,14.6-4.3c4.9,0,9.4,1.3,13.7,3.7c5.5,3.2,9.1,8,11.1,14c0.6,1.8,1,3.6,1.3,5.4c0.1,1,0.4,2,0.5,3
	c0.1,1,0.1,1.8,0.1,2.8v22.3c0,2.2-0.2,4.4-0.6,6.6c-0.8,4.5-2.5,8.2-5,11.2c-0.6,0.7-1.1,1.4-1.7,2c-3.1,2.8-6.9,4.7-11,5.7
	c10.7,0.3,21.6-3.5,29.8-11.7C79.4,58.1,82.6,42.8,78.7,29.1 M59.4,72.9h-5c2.5-3,4.2-6.7,5-11.2V72.9z"/>
<path d="M44.8,67.1c1.5-1.8,2.4-4.1,2.9-6.7c0-0.2,0.2-0.3,0.2-0.5c0.3-1.6,0.4-3.7,0.4-6.5V34c0-1.7-0.4-2.9-0.6-4.4
	c-0.6-4.6-1.8-8.5-4.2-11.2c-3.5-3.8-7.8-5.7-13-5.7c-4.9,0-9,1.8-12.3,5.3c-3.4,3.6-5,7.8-5,12.8c0,4.7,1.6,8.7,4.8,12.2
	c3.4,3.7,7.6,5.5,12.6,5.5c3.2,0,6.3-0.9,9-2.6c1.2-0.8,2.9-2.1,4.9-3.9v9.5c-2.6,2-4.7,3.3-6.4,4c-2.7,1.2-5.6,1.9-8.6,1.8
	c-3.4,0-6.8-0.7-10.1-2.2c-3.2-1.4-6.1-3.5-8.5-6C6.2,44.1,3.9,38,3.9,30.9c0-5.5,1.4-10.4,4.3-14.8C-3.8,32-2.7,54.5,11.7,68.9
	c0.8,0.8,1.7,1.4,2.5,2.1c5.7,1.7,10.8,2.5,15.2,2.5C36.2,73.5,41.3,71.4,44.8,67.1"/>
<path d="M125.8,28.8c-0.2-0.4-0.3-0.8-0.5-1.1c-2.1-4.2-6.1-7-11.2-7.5l-0.1,0c-0.2,0-0.3,0-0.5,0c-0.1,0-0.2,0-0.3,0H113
	c-0.2,0-0.3,0-0.5,0c-0.1,0-0.3,0-0.4,0H112c-0.1,0-0.2,0-0.3,0h-0.1l-0.3,0h0c-5.6,0.4-10.3,3.6-12.3,8.8c-0.7,1.7-1,3.6-1,5.5
	c0,0,0,0.1,0,0.1s0,0.1,0,0.1c0,0.9,0.1,1.9,0.3,2.8c1.3,6.8,6.9,11.4,14.2,11.4c0.2,0,0.3,0,0.5,0l0.2,0h0.1
	c4.4-0.2,8.1-2.2,10.5-5.3c0.8-1.1,1.5-2.3,2-3.6v7.4c0,8.7-4,12.6-12.5,12.6c-5,0-9.2-1.7-12.2-4.6l-0.8,0.8
	c2.8,3.1,7.7,4.9,13,4.9c9.1,0,13.6-4.3,13.6-13.9V34.6C126.9,32.6,126.6,30.6,125.8,28.8 M112.5,47.7c-7.7,0-13.3-5.5-13.3-13.3
	c0-7.8,5.6-13.2,13.3-13.2c7.7,0,13.3,5.4,13.3,13.2C125.8,42.2,120.2,47.7,112.5,47.7z"/>
<path d="M144.8,20.1l-0.3,0c-0.1,0-0.1,0-0.2,0c-0.1,0-0.3,0-0.4,0h-0.1c-4.8,0.4-8.4,2.8-10.2,7.6c-0.8,2.3-1,4.6-1,6.3v15.7h1.1
	V33.9c0-7.8,4.2-12.7,11.2-12.7h0.3v-1.1C145.1,20.1,145,20.1,144.8,20.1"/>
<path d="M163.3,20.1c-4.4,0-8.7,1.7-11.4,4.4l0.8,0.8c2.6-2.5,6.3-4.1,10.7-4.1c6.1,0,9.3,3.1,9.3,9.3v3.3h-11.2
	c-7.9,0-10.5,3.7-10.5,7.9c0,0.7,0.1,1.4,0.3,2.1c0.9,3.7,4.3,6,9.7,6.1c0.1,0,0.3,0,0.4,0h0.1c3.2,0,5.8-0.8,7.8-2.3
	c1.4-0.9,2.6-2.2,3.4-3.7c0.8-1.4,1.1-3,1.1-4.6v-9C173.8,23.7,170.1,20.1,163.3,20.1 M172.7,41.3c-1.9,4.8-5.5,7.5-11.2,7.5
	c-5.9,0-9.3-2.8-9.3-7.2c0-3.9,2.6-6.8,9.3-6.8h11.2V41.3z"/>
<path d="M193.9,48.4l-12.8-28.2h-1.3l13.6,29.5h1.1L205.4,26h-1.3L193.9,48.4z"/>
<path d="M209.4,14.4l-2.6,5.7h1.3l2.6-5.7H209.4z"/>
<path d="M224.7,26h-1.1v23.8h1.1V26z"/>
<path d="M224.7,14.4h-1.1v5.7h1.1V14.4z"/>
<path d="M274.4,20.1c-6.4,0-10.8,3.5-12.3,8.8c-1.1-5.7-5.1-8.7-10.9-8.8c-0.1,0-0.1,0-0.2,0H251h-0.2c-0.1,0-0.2,0-0.2,0
	c-4.2,0.1-7.6,1.7-9.7,4.5c-0.8,1-1.4,2.1-1.9,3.3c-0.7,1.8-1.1,3.8-1.1,5.8c0,0.2,0,0.4,0,0.5c0,0.1,0,0.2,0,0.3v15.3h1.1v-16
	c0-7.5,4.6-12.6,12.1-12.6c2,0,3.8,0.4,5.3,1.1c0.8,0.4,1.5,1,2.2,1.6c1.2,1.3,2.1,3,2.5,5.1c0.2,0.9,0.3,1.8,0.3,2.7
	c0,0.2,0,0.4,0,0.7v17.4h1.1v-16c0-7.5,4.6-12.6,12.1-12.6c6.4,0,10.3,3.9,10.3,11.2v17.4h1.1V32.3
	C285.9,24.4,281.5,20.1,274.4,20.1"/>
<path d="M334.7,20.1c-6.4,0-10.8,3.5-12.3,8.8c-1.1-5.7-5-8.7-10.9-8.8c-0.1,0-0.2,0-0.2,0h-0.1H311c-0.1,0-0.1,0-0.2,0
	c-4.4,0.1-7.9,1.9-10,4.9c0,0.1-0.1,0.1-0.1,0.2c-0.6,0.9-1.1,1.8-1.5,2.7c-0.8,1.9-1.1,4-1.1,6.3v15.6h1.1v-16
	c0-7.5,4.6-12.6,12.1-12.6c2,0,3.8,0.4,5.3,1.2c4.2,2.4,4.7,6.4,4.9,9.3c0,0.2,0,0.5,0,0.8v17.4h1.1v-16c0-7.5,4.6-12.6,12.1-12.6
	c6.4,0,10.3,3.9,10.3,11.2v17.4h1.1V32.3C346.1,24.4,341.7,20.1,334.7,20.1"/>
<path d="M355.4,35c0-8.7,6.1-14.9,14.3-14.9c8.2,0,14.3,6.2,14.3,14.9s-6.1,15-14.3,15C361.5,49.9,355.4,43.7,355.4,35z M382.9,35
	c0-8.2-5.6-13.8-13.2-13.8s-13.2,5.7-13.2,13.8s5.6,13.9,13.2,13.9C377.2,48.8,382.9,43.1,382.9,35z"/>
</svg>
