<svg width="384" height="81" viewBox="0 0 384 81" fill="none" xmlns="http://www.w3.org/2000/svg">
<path d="M78.6658 29.0944C77.9562 29.0594 77.1942 29.0185 76.7945 29.0197C71.4345 29.0197 67.2622 30.5698 64.2776 33.67C62.2769 35.7371 60.8868 38.353 60.0747 41.5015C60.0117 41.7654 59.9873 42.138 59.9325 42.4264V32.8443C59.9325 31.8377 59.9954 30.9522 59.9325 29.998C61.3599 27.4171 62.658 25.4601 64.3848 24.1405C67.4983 21.8048 71.0884 20.6743 75.0606 20.5038C73.3058 17.3962 71.2725 14.4066 68.6297 11.7579C54.252 -2.65783 31.797 -3.76144 16 8.13646C20.2577 5.29045 25.1016 3.81547 30.5653 3.81547C35.4406 3.81547 39.9873 5.06856 44.2381 7.54203C49.7601 10.7559 53.3152 15.5183 55.3077 21.5128C55.9047 23.2838 56.3426 25.1047 56.6163 26.9538C56.7608 27.9464 57.0082 28.947 57.0781 29.998C57.141 30.958 57.1954 31.8342 57.1942 32.835V55.0939C57.1933 57.3136 56.9983 59.5288 56.6116 61.7144C55.8227 66.214 54.0947 69.8997 51.5837 72.9011C51.0197 73.5749 50.5268 74.3025 49.8778 74.9062C46.7317 77.7511 43.0262 79.5939 38.8687 80.6438C49.6028 80.9731 60.4359 77.1321 68.6274 68.9222C79.3976 58.1279 82.6206 42.7896 78.6623 29.0991M59.3557 72.9011H54.3266C56.8377 69.8986 58.5657 66.2129 59.3557 61.712V72.9011Z" fill="black"/>
<path d="M44.8157 67.1381C46.3037 65.3373 47.2021 63.0565 47.7218 60.4488C47.7579 60.2666 47.8931 60.1673 47.9245 59.9816C48.1751 58.4296 48.2997 56.2539 48.2997 53.4815V34.0125C48.2997 32.3518 47.9094 31.0929 47.7171 29.6273C47.1345 25.0727 45.9437 21.1523 43.5445 18.4768C40.0756 14.672 35.7468 12.7544 30.5906 12.7544C25.6839 12.7544 21.5741 14.5061 18.2928 18.0167C14.9339 21.5715 13.2567 25.8264 13.2614 30.7811C13.2614 35.4524 14.8391 39.5036 18.0272 42.9336C21.4188 46.5982 25.6225 48.431 30.6384 48.4317C33.829 48.4509 36.96 47.5655 39.6701 45.8777C40.8877 45.0941 42.5295 43.8106 44.592 41.9946V51.4845C42.013 53.4433 39.893 54.7902 38.2322 55.5252C35.5418 56.7579 32.6154 57.3872 29.6573 57.3692C26.2199 57.3692 22.8768 56.6498 19.5944 55.2075C16.3681 53.7904 13.4609 51.7343 11.0475 49.1628C6.24985 44.057 3.85376 37.9699 3.8592 30.9014C3.8592 25.3869 5.28775 20.4683 8.14489 16.1458C-3.75207 31.984 -2.66374 54.5056 11.7245 68.9261C12.511 69.7144 13.4175 70.2843 14.2495 70.9931C19.9824 72.6631 25.0745 73.5157 29.486 73.5157C36.2358 73.5157 41.3457 71.391 44.8157 67.1416" fill="black"/>
<path d="M125.794 28.7806C125.633 28.3914 125.455 28.0103 125.262 27.6373C123.206 23.4553 119.143 20.6397 114.064 20.1503L113.974 20.1422C113.814 20.1281 113.652 20.1153 113.487 20.1048C113.371 20.1048 113.262 20.0919 113.148 20.0873H112.98C112.81 20.0873 112.639 20.0791 112.467 20.0791C112.34 20.0791 112.213 20.0791 112.087 20.0791H111.997C111.9 20.0791 111.802 20.0791 111.706 20.0884H111.632L111.325 20.1048H111.287C105.662 20.496 100.945 23.6912 98.9802 28.9138C98.321 30.6637 97.9888 32.5204 98.0003 34.3909C98.0003 34.4189 98.0003 34.447 98.0003 34.475C98.0003 34.503 98.0003 34.5334 98.0003 34.5626C97.9997 35.5036 98.0915 36.4424 98.2741 37.3654C99.5559 44.161 105.222 48.7728 112.467 48.7728C112.629 48.7728 112.788 48.7728 112.948 48.7646L113.181 48.7564H113.285C117.697 48.5404 121.41 46.5738 123.808 43.4685C124.648 42.3778 125.319 41.1659 125.797 39.8739V47.2955C125.797 56.0285 121.809 59.9081 113.329 59.9081C108.374 59.9081 104.103 58.2521 101.085 55.2846L100.286 56.0834C103.083 59.1654 107.977 60.9883 113.329 60.9883C122.442 60.9883 126.941 56.651 126.941 47.118V34.5754C126.946 32.5838 126.559 30.6107 125.803 28.769M112.468 47.7007C104.777 47.7007 99.141 42.2201 99.141 34.4003C99.141 26.5804 104.777 21.157 112.468 21.157C120.158 21.157 125.796 26.5804 125.796 34.4003C125.796 42.2201 120.158 47.7007 112.468 47.7007Z" fill="black"/>
<path d="M144.803 20.0802L144.531 20.0919C144.459 20.0919 144.388 20.0978 144.317 20.1024C144.183 20.1094 144.049 20.12 143.918 20.1305H143.867C139.046 20.5392 135.446 22.9788 133.669 27.7214C132.821 29.9788 132.62 32.3589 132.62 34.0078V49.7573H133.759V33.8864C133.759 26.0619 137.916 21.2142 144.979 21.2142H145.321V20.0732C145.147 20.0732 144.972 20.0732 144.806 20.0802" fill="black"/>
<path d="M163.257 20.0732C158.815 20.0732 154.601 21.7853 151.81 24.4678L152.607 25.2666C155.17 22.8141 158.929 21.157 163.314 21.157C169.408 21.157 172.655 24.2973 172.655 30.4611V33.7194H161.492C153.632 33.7194 151.013 37.4308 151.013 41.6607C151.01 42.3755 151.096 43.088 151.269 43.7815C152.201 47.4333 155.608 49.79 160.94 49.9289C161.073 49.9289 161.207 49.9371 161.342 49.9371H161.44C164.607 49.9371 167.211 49.1103 169.212 47.6645C170.647 46.7258 171.831 45.4491 172.66 43.9461C173.417 42.543 173.809 40.9714 173.8 39.3764V30.4051C173.8 23.669 170.098 20.0732 163.263 20.0732M172.655 41.3103C170.718 46.1054 167.13 48.8452 161.435 48.8452C155.569 48.8452 152.151 46.0424 152.151 41.5964C152.151 37.6573 154.771 34.8031 161.435 34.8031H172.655V41.3103Z" fill="black"/>
<path d="M193.899 48.4422L181.084 20.2437H179.774L193.329 49.7548H194.468L205.398 25.9602H204.116L193.899 48.4422Z" fill="black"/>
<path d="M209.369 14.3604L206.771 20.0769H208.053L210.678 14.3604H209.369Z" fill="black"/>
<path d="M224.7 25.9604H223.561V49.7551H224.7V25.9604Z" fill="black"/>
<path d="M224.7 14.3569H223.561V20.0735H224.7V14.3569Z" fill="black"/>
<path d="M274.421 20.0732C267.986 20.0732 263.6 23.6118 262.119 28.8635C260.997 23.1843 257.056 20.1667 251.223 20.0767C251.155 20.0767 251.086 20.0767 251.019 20.0767H250.956H250.801C250.722 20.0767 250.641 20.0767 250.568 20.0767C246.326 20.1725 242.988 21.8157 240.84 24.5542C240.051 25.5481 239.412 26.653 238.943 27.8335C238.226 29.6754 237.841 31.6303 237.805 33.6073C237.805 33.7848 237.797 33.9635 237.797 34.1421C237.797 34.2472 237.797 34.35 237.805 34.4528V49.7514H238.943V33.7194C238.943 26.2452 243.501 21.1617 251.019 21.1617C253.05 21.1617 254.819 21.5494 256.29 22.3085C257.097 22.7417 257.835 23.2928 258.48 23.9434C259.7 25.2152 260.543 26.9144 260.963 29.0259C261.119 29.9045 261.218 30.7924 261.259 31.6839C261.267 31.9046 261.27 32.1288 261.27 32.3554V49.7654H262.409V33.7194C262.409 26.2452 266.966 21.1617 274.484 21.1617C280.92 21.1617 284.738 25.0435 284.738 32.3495V49.7596H285.876V32.3448C285.876 24.3534 281.492 20.0732 274.429 20.0732" fill="black"/>
<path d="M334.676 20.0732C328.24 20.0732 323.855 23.6118 322.374 28.8635C321.254 23.196 317.326 20.1783 311.511 20.0779C311.436 20.0779 311.359 20.0779 311.278 20.0779H311.207H311.034C310.965 20.0779 310.896 20.0779 310.828 20.0779C306.385 20.1737 302.932 21.9675 300.798 24.9396C300.756 24.998 300.712 25.0564 300.671 25.116C300.071 25.9663 299.574 26.8857 299.191 27.8545C298.433 29.7523 298.052 31.8906 298.052 34.1421V49.7526H299.191V33.7194C299.191 26.2452 303.747 21.1617 311.265 21.1617C313.306 21.1617 315.083 21.5541 316.558 22.3202C320.786 24.7306 321.295 28.7362 321.502 31.5986C321.511 31.845 321.517 32.0949 321.517 32.3495V49.7596H322.656V33.7194C322.656 26.2452 327.213 21.1617 334.731 21.1617C341.166 21.1617 344.985 25.0435 344.985 32.3495V49.7596H346.123V32.3448C346.123 24.3534 341.738 20.0732 334.676 20.0732" fill="black"/>
<path d="M355.409 34.9713C355.409 26.2371 361.503 20.0732 369.705 20.0732C377.907 20.0732 384 26.2371 384 34.9713C384 43.7055 377.906 49.9266 369.705 49.9266C361.504 49.9266 355.409 43.7044 355.409 34.9713ZM382.861 34.9713C382.861 26.8081 377.222 21.157 369.705 21.157C362.188 21.157 356.549 26.8081 356.549 34.9713C356.549 43.1345 362.187 48.8417 369.705 48.8417C377.223 48.8417 382.861 43.1333 382.861 34.9713Z" fill="black"/>
</svg>
