<svg width="485" height="80" viewBox="0 0 485 80" fill="none" xmlns="http://www.w3.org/2000/svg">
<path d="M214.697 0.324219H212.766V10.0093H214.697V0.324219Z" fill="black"/>
<path d="M188.721 0.330078L184.321 10.0151H186.493L190.94 0.330078H188.721Z" fill="black"/>
<path d="M78.8706 10.041L79.3306 10.021C79.6177 10.0093 79.9155 10.0093 80.2095 10.0093V11.9424H79.6294C67.6636 11.9424 60.6196 20.1553 60.6196 33.4121V60.3013H58.6909V33.6177C58.6909 30.8242 59.0308 26.7915 60.4673 22.9673C63.478 14.9321 69.5786 10.7988 77.7456 10.1064H77.8325C78.0532 10.0884 78.2808 10.0708 78.5073 10.0586L78.5688 10.0542L78.5913 10.0527C78.6841 10.0469 78.7769 10.041 78.8706 10.041Z" fill="black"/>
<path fill-rule="evenodd" clip-rule="evenodd" d="M46.2241 22.8247C46.5513 23.4565 46.8521 24.1021 47.1265 24.7617L47.1401 24.7417C48.4214 27.8618 49.0776 31.2051 49.0689 34.5796V55.8296C49.0689 71.981 41.4468 79.3291 26.0064 79.3291C16.939 79.3291 8.64795 76.2407 3.90967 71.019L5.26221 69.666C10.3745 74.6934 17.6118 77.499 26.0064 77.499C40.3745 77.499 47.1304 70.9263 47.1304 56.1304V43.5562C46.3198 45.7451 45.1841 47.7983 43.7603 49.6465C39.6978 54.9072 33.4077 58.2393 25.9312 58.6055H25.7554L25.3608 58.6191C25.1939 58.6279 25.0269 58.6313 24.8599 58.6323L24.5454 58.6333C12.272 58.6333 2.67139 50.8198 0.500492 39.3062C0.190921 37.7422 0.0356479 36.1519 0.0366245 34.5576V34.2666C0.0170933 31.0977 0.579593 27.9521 1.69678 24.9873C5.02491 16.1387 13.0161 10.7256 22.5474 10.0625H22.6108L23.1323 10.0347H23.2564C23.4204 10.019 23.5864 10.019 23.7495 10.019H24.5454C24.8374 10.019 25.1274 10.0327 25.4165 10.0327H25.7007L25.8843 10.043L25.9194 10.0459C26.0366 10.0542 26.1528 10.0625 26.2749 10.0625L26.7134 10.0938L27.1001 10.126L27.2524 10.1396C35.8579 10.9688 42.7417 15.7393 46.2241 22.8247ZM1.96924 34.2827C1.96924 47.5312 11.5181 56.8169 24.5474 56.8169C37.5767 56.8169 47.1284 47.5312 47.1284 34.2827C47.1284 21.0337 37.5767 11.8452 24.5474 11.8452C11.5181 11.8452 1.96924 21.0337 1.96924 34.2827Z" fill="black"/>
<path fill-rule="evenodd" clip-rule="evenodd" d="M110.597 10.0093C103.071 10.0093 95.9312 12.9097 91.2026 17.4546L92.5532 18.8081C96.896 14.6528 103.265 11.8452 110.694 11.8452C121.018 11.8452 126.519 17.166 126.519 27.6089V33.1294H107.606C94.2905 33.1294 89.8521 39.417 89.8521 46.5835C89.8472 47.7949 89.9927 49.002 90.2866 50.1768C91.8657 56.3638 97.6382 60.3564 106.672 60.5923C106.785 60.5923 106.897 60.5957 107.009 60.5991C107.124 60.6025 107.238 60.606 107.353 60.606H107.519C112.885 60.606 117.295 59.2051 120.687 56.7554C123.118 55.165 125.124 53.002 126.529 50.4556C127.811 48.0786 128.474 45.416 128.459 42.7134V27.5137C128.459 16.1016 122.187 10.0093 110.607 10.0093H110.597ZM126.519 45.9902C123.238 54.1143 117.159 58.7559 107.509 58.7559C97.5708 58.7559 91.7808 54.0073 91.7808 46.4746C91.7808 39.8008 96.2192 34.9653 107.509 34.9653H126.519V45.9902Z" fill="black"/>
<path d="M140.8 10.2979L162.512 58.0732L179.822 19.9829H181.994L163.476 60.2969H161.547L138.582 10.2979H140.8Z" fill="black"/>
<path d="M212.766 19.9834H214.697V60.2974H212.766V19.9834Z" fill="black"/>
<path d="M278.092 24.9023C280.601 16.0044 288.033 10.0093 298.936 10.0093H298.95C310.915 10.0093 318.343 17.2607 318.343 30.8003V60.3052H316.415V30.8081C316.415 18.4302 309.946 11.8535 299.042 11.8535C286.305 11.8535 278.583 20.4663 278.583 33.1294V60.3149H276.655V30.8184C276.655 30.4346 276.649 30.0542 276.635 29.6807C276.566 28.1699 276.398 26.666 276.134 25.1772C275.423 21.6001 273.994 18.7212 271.927 16.5664C271.644 16.2803 271.35 16.0059 271.046 15.7432C270.832 15.5576 270.612 15.3779 270.387 15.2046C269.705 14.6768 268.979 14.2056 268.217 13.7964C265.724 12.5103 262.727 11.8535 259.287 11.8535C246.549 11.8535 238.828 20.4663 238.828 33.1294V60.2915H236.899V34.3716L236.893 34.2896L236.887 34.1265L236.885 33.8452C236.885 33.6934 236.889 33.5415 236.893 33.3901L236.896 33.2231L236.899 32.9395C236.959 29.5898 237.613 26.2778 238.828 23.1572C239.622 21.1572 240.705 19.2852 242.042 17.6011C245.68 12.9614 251.336 10.1772 258.522 10.0151H259.631C269.514 10.1675 276.191 15.2803 278.092 24.9023Z" fill="black"/>
<path d="M401.023 10.0093C390.12 10.0093 382.688 16.0044 380.179 24.9023C378.282 15.2998 371.627 10.1875 361.776 10.0171H360.619C353.091 10.1792 347.24 13.2188 343.625 18.2539C343.554 18.353 343.479 18.4521 343.41 18.5527C342.913 19.2563 342.458 19.9883 342.046 20.7437C341.616 21.5352 341.234 22.353 340.903 23.1929C339.618 26.4077 338.972 30.0308 338.972 33.8452V60.2935H340.903V33.1294C340.903 20.4663 348.622 11.8535 361.359 11.8535C364.816 11.8535 367.827 12.5181 370.326 13.8159C377.491 17.8999 378.351 24.6865 378.703 29.5361C378.718 29.9536 378.728 30.377 378.728 30.8081V60.3052H380.657V33.1294C380.657 20.4663 388.377 11.8535 401.116 11.8535C412.019 11.8535 418.488 18.4302 418.488 30.8081V60.3052H420.417V30.8003C420.417 17.2607 412.988 10.0093 401.023 10.0093Z" fill="black"/>
<path fill-rule="evenodd" clip-rule="evenodd" d="M460.372 10.0093C446.475 10.0093 436.15 20.4521 436.15 35.25C436.15 50.0464 446.477 60.5884 460.372 60.5884C474.265 60.5884 484.59 50.0483 484.59 35.25C484.59 20.4521 474.267 10.0093 460.372 10.0093ZM460.372 11.8452C473.107 11.8452 482.66 21.4199 482.66 35.25C482.66 49.0786 473.109 58.75 460.372 58.75C447.633 58.75 438.081 49.0806 438.081 35.25C438.081 21.4199 447.635 11.8452 460.372 11.8452Z" fill="black"/>
</svg>
