<svg width="123" height="123" viewBox="0 0 123 123" fill="none" xmlns="http://www.w3.org/2000/svg">
<path d="M72.0712 45.9509C67.7031 43.3596 62.3342 42.602 57.1148 43.8405C54.6232 44.4735 52.2633 45.6078 50.1947 47.1668C48.1261 48.7258 46.3969 50.6731 45.1241 52.8772C43.2551 55.7735 42.2148 59.0566 42.118 62.3648C42.0196 65.572 42.8569 68.677 44.5341 71.325C46.4043 74.1204 48.947 76.4155 51.9656 78.0325C54.9841 79.6496 58.3977 80.5453 61.9419 80.6504C65.252 80.6741 68.5686 79.7944 71.5129 78.1117C74.5522 76.3798 77.0964 73.9023 78.8651 70.9523C80.2927 68.8301 81.2498 66.4666 81.6708 64.0237C82.0918 61.5808 81.9667 59.1162 81.3042 56.7988C79.8823 52.0616 76.573 48.1735 72.0712 45.9509Z" fill="white"/>
<path d="M29.5674 91.1742C32.1764 94.1013 35.302 96.5521 38.817 98.4269C44.4988 101.471 49.5459 102.355 53.9583 101.081C56.4803 100.184 58.827 98.8154 60.8586 97.0582C62.8902 95.301 64.565 93.1908 65.7831 90.8534L68.1957 86.9761C64.5793 88.3758 60.7293 88.9206 56.9809 88.5633C53.0553 88.1734 49.3075 87.0227 45.9559 85.1783C41.5296 82.8898 37.8395 79.5317 35.2141 75.403C32.7399 71.5229 31.4965 66.9644 31.6258 62.2477C31.865 57.3422 33.4086 52.4858 36.1067 48.1496C38.8048 43.8135 42.5658 40.1449 47.0247 37.4999C51.356 35.0361 56.2304 33.7634 61.0825 33.8296C66.2372 33.9189 71.2 35.2199 75.5475 37.6214C79.0733 39.4761 82.1215 42.0317 84.5089 45.1346C86.7635 48.0639 88.1388 51.5735 88.4974 55.313L93.2183 47.726L101.457 52.1395L96.4382 60.2052C99.137 58.6112 102.166 57.6938 105.229 57.5427C104.771 51.1669 102.862 45.0705 99.6367 39.6839C96.4115 34.2972 91.9489 29.7517 86.5637 26.368C81.1784 22.9844 75.0018 20.8451 68.47 20.1012C61.9381 19.3574 55.2102 20.027 48.761 22.063C42.3119 24.0989 36.2988 27.4513 31.1461 31.8839C25.9934 36.3164 21.8268 41.7209 18.9403 47.7158C16.0539 53.7107 14.518 60.1499 14.441 66.579C14.364 73.008 15.7477 79.2702 18.4947 84.9234L24.0109 81.9428C25.1862 85.3915 27.0748 88.529 29.5674 91.1742Z" fill="white"/>
<path d="M86.7579 76.9156L81.941 84.0822L75.3855 94.6175C72.4874 99.6601 68.3919 104.021 63.4445 107.332C74.1203 106.011 84.1587 101.209 91.8412 93.7501C99.5237 86.2906 104.373 76.637 105.558 66.4417C103.27 66.1504 100.917 66.3603 98.677 67.0557C93.5731 68.7816 89.2917 72.3234 86.7579 76.9156Z" fill="white"/>
</svg>
