<svg xmlns="http://www.w3.org/2000/svg" viewBox="0 0 785.56 142.99"><path d="M140.16,51.64c-1.26-.07-2.61-.14-3.33-.14q-14.3,0-22.26,8.26a30.35,30.35,0,0,0-7.47,13.89c-.12.47-.16,1.13-.26,1.65v-17c0-1.78-.37-3.28-.49-5a33.24,33.24,0,0,1,8.41-10.47,32.67,32.67,0,0,1,17.36-6.35,1,1,0,0,0,.82-1.52,68.68,68.68,0,0,0-10.63-14.1A71.53,71.53,0,0,0,28.7,14.44,45.64,45.64,0,0,1,54.61,6.78,47.62,47.62,0,0,1,78.93,13.4c9.82,5.7,16.14,14.15,19.69,24.79a55.58,55.58,0,0,1,2.32,9.65c.26,1.76.42,3.6.54,5.46.11,1.7.49,3.2.49,5v39.5a66.74,66.74,0,0,1-1,11.75A41.31,41.31,0,0,1,92,129.38a35.48,35.48,0,0,1-3,3.56,43,43,0,0,1-12.77,8c-1.08.44-.81,2.17.35,2.09a71.1,71.1,0,0,0,63.62-91.35Zm-34.34,77.74H96.87a41.41,41.41,0,0,0,8.95-19.85Z"/><path d="M79.71,119.15a26.27,26.27,0,0,0,5.17-11.87c.06-.32.3-.5.36-.83a77.27,77.27,0,0,0,.67-11.53V60.37c0-2.95-.7-5.18-1-7.78-1-8.08-3.16-15-7.42-19.79a30,30,0,0,0-23-10.15A28.77,28.77,0,0,0,32.54,32a31.82,31.82,0,0,0-8.95,22.65,30.58,30.58,0,0,0,8.48,21.57A29.34,29.34,0,0,0,54.5,86a30.09,30.09,0,0,0,16.07-4.53,79.3,79.3,0,0,0,8.75-6.9V91.39A62.08,62.08,0,0,1,68,98.56a36.28,36.28,0,0,1-15.26,3.25A44.09,44.09,0,0,1,34.85,98a46.38,46.38,0,0,1-15.2-10.72A45.62,45.62,0,0,1,6.86,54.84a46.36,46.36,0,0,1,7.63-26.19,71.54,71.54,0,0,0,6.36,93.67c1.4,1.4,3,2.41,4.5,3.67,10.19,3,19.25,4.47,27.1,4.47q18,0,27.26-11.31Z"/><path d="M219.86,95.44A28.86,28.86,0,1,0,191,66.58,28.86,28.86,0,0,0,219.86,95.44Z" style="fill:none;stroke:#000;stroke-miterlimit:10;stroke-width:3.690000057220459px"/><path d="M754.86,97.53c15.94,0,28.86-13.39,28.86-29.91S770.8,37.71,754.86,37.71,726,51.1,726,67.62,738.92,97.53,754.86,97.53Z" style="fill:none;stroke:#000;stroke-miterlimit:10;stroke-width:3.690000057220459px"/><path d="M194.64,110.27s13.27,10.39,26.51,10.39c12.17,0,27.54-6.85,27.54-21V68.46" style="fill:none;stroke:#000;stroke-miterlimit:10;stroke-width:3.690000057220459px"/><path d="M263,99.32V61.38c0-10.84,7.08-23.44,25.44-23.44" style="fill:none;stroke:#000;stroke-miterlimit:10;stroke-width:3.690000057220459px"/><path d="M302.15,47c3.54-4.43,14.38-9.07,23-9.07,10.61,0,21.13,6,21.13,16.14v25c0,5.75-7.42,18.36-23.35,18.36S301,87.33,301,82.86v-4c0-3.06,3.54-12.28,16.81-12.28h28.43" style="fill:none;stroke:#000;stroke-miterlimit:10;stroke-width:3.690000057220459px"/><path d="M360.76,36.22c.22.66,28.87,61.38,28.87,61.38l22.23-49.22" style="fill:none;stroke:#000;stroke-miterlimit:10;stroke-width:3.690000057220459px"/><path d="M451.67,24V36.17" style="fill:none;stroke:#000;stroke-miterlimit:10;stroke-width:3.690000057220459px"/><path d="M451.67,48.11v51.2" style="fill:none;stroke:#000;stroke-miterlimit:10;stroke-width:3.690000057220459px"/><path d="M481.53,99.31V67.13c0-6.13,1.33-29.42,25.44-29.42,20.79,0,23.9,13.94,23.9,26.55V99.31" style="fill:none;stroke:#000;stroke-miterlimit:10;stroke-width:3.690000057220459px"/><path d="M530.87,99.31V67.13c0-6.13,1.33-29.42,25.44-29.42,20.79,0,23.9,13.94,23.9,26.55V99.31" style="fill:none;stroke:#000;stroke-miterlimit:10;stroke-width:3.690000057220459px"/><path d="M606.72,99.31V67.13c0-6.13,1.33-29.42,25.44-29.42,20.79,0,23.9,13.94,23.9,26.55V99.31" style="fill:none;stroke:#000;stroke-miterlimit:10;stroke-width:3.690000057220459px"/><path d="M656.06,99.31V67.13c0-6.13,1.33-29.42,25.44-29.42,20.79,0,23.9,13.94,23.9,26.55V99.31" style="fill:none;stroke:#000;stroke-miterlimit:10;stroke-width:3.690000057220459px"/><path d="M423.58,24l-6.42,13.71" style="fill:none;stroke:#000;stroke-miterlimit:10;stroke-width:3.690000057220459px"/></svg>